<svg width="769" height="277" viewBox="0 0 769 277" fill="none" xmlns="http://www.w3.org/2000/svg">
<path d="M335.992 83.4834L358.943 143L350.435 143L345.164 129.304L318.311 129.304L313.04 143L304.532 143L327.483 83.4834L335.992 83.4834ZM321.548 120.795L341.885 120.795L331.758 94.5649L321.548 120.795ZM367.283 83.4834L410.655 83.4834L410.655 91.9917L375.792 91.9917L375.792 109.008L405.55 109.008L405.55 117.517L375.792 117.517L375.792 143L367.283 143L367.283 83.4834ZM429.205 117.517C428.043 117.517 426.936 117.295 425.885 116.853C424.861 116.382 423.961 115.773 423.187 115.026C422.412 114.252 421.803 113.352 421.361 112.329C420.918 111.277 420.697 110.17 420.697 109.008L420.697 91.9917C420.697 90.8296 420.918 89.7367 421.361 88.7129C421.803 87.6615 422.412 86.7622 423.187 86.0151C423.961 85.2404 424.861 84.6317 425.885 84.189C426.936 83.7186 428.043 83.4834 429.205 83.4834L458.092 83.4834C459.254 83.4834 460.347 83.7186 461.37 84.189C462.422 84.6317 463.335 85.2404 464.11 86.0151C464.884 86.7622 465.493 87.6615 465.936 88.7129C466.378 89.7367 466.6 90.8296 466.6 91.9917L466.6 99.6699L458.092 99.6699L458.092 91.9917L429.205 91.9917L429.205 109.008L458.092 109.008C459.254 109.008 460.347 109.23 461.37 109.672C462.422 110.115 463.335 110.724 464.11 111.499C464.884 112.273 465.493 113.186 465.936 114.238C466.378 115.262 466.6 116.354 466.6 117.517L466.6 134.492C466.6 135.654 466.378 136.761 465.936 137.812C465.493 138.836 464.884 139.735 464.11 140.51C463.335 141.285 462.422 141.893 461.37 142.336C460.347 142.779 459.254 143 458.092 143L428.375 143C427.213 143 426.106 142.779 425.054 142.336C424.031 141.893 423.131 141.285 422.357 140.51C421.582 139.735 420.973 138.836 420.531 137.812C420.088 136.761 419.866 135.654 419.866 134.492L419.866 126.855L428.375 126.855L428.375 134.492L458.092 134.492L458.092 117.517L429.205 117.517Z" fill="#4770D8"/>
<path d="M315.997 164.493L325.447 189L321.944 189L319.773 183.36L308.716 183.36L306.546 189L303.042 189L312.493 164.493L315.997 164.493ZM310.049 179.857L318.423 179.857L314.253 169.056L310.049 179.857ZM343.938 181.617L331.889 181.617L331.889 185.633L343.938 185.633L343.938 189L331.889 189C331.433 189 331.001 188.915 330.59 188.744C330.18 188.561 329.821 188.322 329.514 188.026C329.217 187.718 328.978 187.359 328.796 186.949C328.625 186.539 328.54 186.1 328.54 185.633L328.54 174.166C328.54 173.699 328.625 173.26 328.796 172.85C328.978 172.44 329.217 172.087 329.514 171.791C329.821 171.483 330.18 171.244 330.59 171.073C331.001 170.89 331.433 170.799 331.889 170.799L340.571 170.799C341.038 170.799 341.477 170.89 341.887 171.073C342.297 171.244 342.65 171.483 342.946 171.791C343.254 172.087 343.493 172.44 343.664 172.85C343.846 173.26 343.938 173.699 343.938 174.166L343.938 181.617ZM331.889 174.166L331.889 178.25L340.571 178.25L340.571 174.166L331.889 174.166ZM352.14 174.166L352.14 189L348.79 189L348.79 170.799L352.14 170.799L352.14 174.012C352.162 173.568 352.265 173.152 352.447 172.765C352.63 172.366 352.869 172.024 353.165 171.739C353.473 171.443 353.826 171.215 354.225 171.056C354.623 170.885 355.051 170.799 355.506 170.799L359.078 170.799C359.545 170.799 359.978 170.89 360.377 171.073C360.787 171.244 361.146 171.483 361.454 171.791C361.761 172.087 362.001 172.44 362.171 172.85C362.354 173.26 362.445 173.699 362.445 174.166L362.445 177.242L359.078 177.242L359.078 174.166L352.14 174.166ZM381.602 185.633C381.602 186.1 381.51 186.539 381.328 186.949C381.157 187.359 380.918 187.718 380.61 188.026C380.314 188.322 379.961 188.561 379.551 188.744C379.152 188.915 378.719 189 378.252 189L369.211 189C368.756 189 368.323 188.915 367.913 188.744C367.502 188.561 367.144 188.322 366.836 188.026C366.54 187.718 366.301 187.359 366.118 186.949C365.947 186.539 365.862 186.1 365.862 185.633L365.862 174.166C365.862 173.699 365.947 173.26 366.118 172.85C366.301 172.44 366.54 172.087 366.836 171.791C367.144 171.483 367.502 171.244 367.913 171.073C368.323 170.89 368.756 170.799 369.211 170.799L378.252 170.799C378.719 170.799 379.152 170.89 379.551 171.073C379.961 171.244 380.314 171.483 380.61 171.791C380.918 172.087 381.157 172.44 381.328 172.85C381.51 173.26 381.602 173.699 381.602 174.166L381.602 185.633ZM369.211 174.166L369.211 185.633L378.252 185.633L378.252 174.166L369.211 174.166ZM386.796 164.493L404.655 164.493L404.655 167.997L390.299 167.997L390.299 175.003L402.553 175.003L402.553 178.507L390.299 178.507L390.299 189L386.796 189L386.796 164.493ZM411.985 170.799L411.985 189L408.619 189L408.619 170.799L411.985 170.799ZM408.448 163.792L412.156 163.792L412.156 167.296L408.448 167.296L408.448 163.792ZM420.359 174.166L420.359 189L417.009 189L417.009 170.799L420.359 170.799L420.359 174.012C420.381 173.568 420.484 173.152 420.666 172.765C420.848 172.366 421.088 172.024 421.384 171.739C421.692 171.443 422.045 171.215 422.443 171.056C422.842 170.885 423.269 170.799 423.725 170.799L427.297 170.799C427.764 170.799 428.197 170.89 428.596 171.073C429.006 171.244 429.365 171.483 429.672 171.791C429.98 172.087 430.219 172.44 430.39 172.85C430.573 173.26 430.664 173.699 430.664 174.166L430.664 177.242L427.297 177.242L427.297 174.166L420.359 174.166ZM449.479 181.617L437.43 181.617L437.43 185.633L449.479 185.633L449.479 189L437.43 189C436.975 189 436.542 188.915 436.131 188.744C435.721 188.561 435.362 188.322 435.055 188.026C434.759 187.718 434.519 187.359 434.337 186.949C434.166 186.539 434.081 186.1 434.081 185.633L434.081 174.166C434.081 173.699 434.166 173.26 434.337 172.85C434.519 172.44 434.759 172.087 435.055 171.791C435.362 171.483 435.721 171.244 436.131 171.073C436.542 170.89 436.975 170.799 437.43 170.799L446.112 170.799C446.579 170.799 447.018 170.89 447.428 171.073C447.838 171.244 448.191 171.483 448.487 171.791C448.795 172.087 449.034 172.44 449.205 172.85C449.388 173.26 449.479 173.699 449.479 174.166L449.479 181.617ZM437.43 174.166L437.43 178.25L446.112 178.25L446.112 174.166L437.43 174.166ZM458.176 178.507C457.698 178.507 457.242 178.416 456.809 178.233C456.388 178.04 456.017 177.789 455.698 177.481C455.379 177.162 455.129 176.792 454.946 176.371C454.764 175.938 454.673 175.482 454.673 175.003L454.673 167.997C454.673 167.518 454.764 167.068 454.946 166.646C455.129 166.214 455.379 165.843 455.698 165.536C456.017 165.217 456.388 164.966 456.809 164.784C457.242 164.59 457.698 164.493 458.176 164.493L470.071 164.493C470.549 164.493 471 164.59 471.421 164.784C471.854 164.966 472.23 165.217 472.549 165.536C472.868 165.843 473.119 166.214 473.301 166.646C473.483 167.068 473.574 167.518 473.574 167.997L473.574 171.158L470.071 171.158L470.071 167.997L458.176 167.997L458.176 175.003L470.071 175.003C470.549 175.003 471 175.095 471.421 175.277C471.854 175.459 472.23 175.71 472.549 176.029C472.868 176.348 473.119 176.724 473.301 177.157C473.483 177.578 473.574 178.028 473.574 178.507L473.574 185.497C473.574 185.975 473.483 186.431 473.301 186.864C473.119 187.285 472.868 187.656 472.549 187.975C472.23 188.294 471.854 188.544 471.421 188.727C471 188.909 470.549 189 470.071 189L457.835 189C457.356 189 456.9 188.909 456.467 188.727C456.046 188.544 455.676 188.294 455.357 187.975C455.038 187.656 454.787 187.285 454.605 186.864C454.422 186.431 454.331 185.975 454.331 185.497L454.331 182.352L457.835 182.352L457.835 185.497L470.071 185.497L470.071 178.507L458.176 178.507ZM494.184 181.617L482.135 181.617L482.135 185.633L494.184 185.633L494.184 189L482.135 189C481.68 189 481.247 188.915 480.837 188.744C480.426 188.561 480.068 188.322 479.76 188.026C479.464 187.718 479.224 187.359 479.042 186.949C478.871 186.539 478.786 186.1 478.786 185.633L478.786 174.166C478.786 173.699 478.871 173.26 479.042 172.85C479.224 172.44 479.464 172.087 479.76 171.791C480.068 171.483 480.426 171.244 480.837 171.073C481.247 170.89 481.68 170.799 482.135 170.799L490.817 170.799C491.284 170.799 491.723 170.89 492.133 171.073C492.543 171.244 492.896 171.483 493.193 171.791C493.5 172.087 493.739 172.44 493.91 172.85C494.093 173.26 494.184 173.699 494.184 174.166L494.184 181.617ZM482.135 174.166L482.135 178.25L490.817 178.25L490.817 174.166L482.135 174.166ZM502.386 174.166L502.386 185.633L511.068 185.633L511.068 182.557L514.434 182.557L514.434 185.633C514.434 186.1 514.343 186.539 514.161 186.949C513.99 187.359 513.751 187.718 513.443 188.026C513.147 188.322 512.794 188.561 512.383 188.744C511.973 188.915 511.535 189 511.068 189L502.386 189C501.93 189 501.497 188.915 501.087 188.744C500.677 188.561 500.318 188.322 500.01 188.026C499.714 187.718 499.475 187.359 499.293 186.949C499.122 186.539 499.036 186.1 499.036 185.633L499.036 174.166C499.036 173.699 499.122 173.26 499.293 172.85C499.475 172.44 499.714 172.087 500.01 171.791C500.318 171.483 500.677 171.244 501.087 171.073C501.497 170.89 501.93 170.799 502.386 170.799L511.068 170.799C511.535 170.799 511.973 170.89 512.383 171.073C512.794 171.244 513.147 171.483 513.443 171.791C513.751 172.087 513.99 172.44 514.161 172.85C514.343 173.26 514.434 173.699 514.434 174.166L514.434 177.242L511.068 177.242L511.068 174.166L502.386 174.166ZM519.287 170.799L522.636 170.799L522.636 185.633L532.019 185.633L532.019 170.799L535.385 170.799L535.385 189L532.019 189L532.019 185.924C531.985 186.345 531.871 186.744 531.677 187.12C531.483 187.496 531.233 187.826 530.925 188.111C530.629 188.385 530.287 188.601 529.9 188.761C529.512 188.92 529.102 189 528.669 189L522.636 189C522.181 189 521.748 188.915 521.338 188.744C520.927 188.561 520.569 188.322 520.261 188.026C519.965 187.718 519.725 187.359 519.543 186.949C519.372 186.539 519.287 186.1 519.287 185.633L519.287 170.799ZM543.571 174.166L543.571 189L540.221 189L540.221 170.799L543.571 170.799L543.571 174.012C543.593 173.568 543.696 173.152 543.878 172.765C544.06 172.366 544.3 172.024 544.596 171.739C544.904 171.443 545.257 171.215 545.656 171.056C546.054 170.885 546.482 170.799 546.937 170.799L550.509 170.799C550.976 170.799 551.409 170.89 551.808 171.073C552.218 171.244 552.577 171.483 552.885 171.791C553.192 172.087 553.431 172.44 553.602 172.85C553.785 173.26 553.876 173.699 553.876 174.166L553.876 177.242L550.509 177.242L550.509 174.166L543.571 174.166ZM572.691 181.617L560.642 181.617L560.642 185.633L572.691 185.633L572.691 189L560.642 189C560.187 189 559.754 188.915 559.344 188.744C558.933 188.561 558.574 188.322 558.267 188.026C557.971 187.718 557.731 187.359 557.549 186.949C557.378 186.539 557.293 186.1 557.293 185.633L557.293 174.166C557.293 173.699 557.378 173.26 557.549 172.85C557.731 172.44 557.971 172.087 558.267 171.791C558.574 171.483 558.933 171.244 559.344 171.073C559.754 170.89 560.187 170.799 560.642 170.799L569.324 170.799C569.791 170.799 570.23 170.89 570.64 171.073C571.05 171.244 571.403 171.483 571.699 171.791C572.007 172.087 572.246 172.44 572.417 172.85C572.6 173.26 572.691 173.699 572.691 174.166L572.691 181.617ZM560.642 174.166L560.642 178.25L569.324 178.25L569.324 174.166L560.642 174.166Z" fill="#4770D8"/>
<path d="M185.773 171.803C184.053 170.068 182.155 168.573 180.121 167.334L184.759 158.942L193.192 154.378C194.413 156.424 195.891 158.335 197.611 160.07C203.157 165.666 210.55 168.766 218.428 168.801C234.692 168.873 247.981 155.701 248.053 139.437C248.088 131.559 245.053 124.139 239.507 118.543C233.961 112.948 226.568 109.847 218.69 109.812C210.812 109.777 203.391 112.813 197.796 118.359C196.245 119.895 194.888 121.574 193.732 123.366L184.939 118.506L180.157 109.669C181.958 108.53 183.649 107.187 185.199 105.65C190.795 100.104 193.896 92.7108 193.931 84.8327C193.966 76.9549 190.931 69.5341 185.385 63.9387C179.839 58.3434 172.445 55.2426 164.567 55.2077C148.304 55.1354 135.014 68.308 134.941 84.5712C134.906 92.4493 137.942 99.8701 143.487 105.465C145.207 107.201 147.106 108.696 149.14 109.934L144.502 118.326L136.068 122.89C134.848 120.845 133.37 118.934 131.65 117.198C126.104 111.603 118.711 108.502 110.833 108.467C94.5692 108.395 81.2794 121.567 81.2073 137.831C81.1724 145.709 84.2077 153.13 89.7535 158.725C95.2997 164.32 102.693 167.421 110.571 167.456C118.449 167.491 125.87 164.456 131.465 158.91C133.015 157.373 134.373 155.694 135.529 153.902L144.322 158.763L149.105 167.599C147.303 168.738 145.612 170.081 144.061 171.618C138.466 177.164 135.365 184.558 135.33 192.436C135.295 200.314 138.33 207.734 143.876 213.33C149.422 218.925 156.815 222.026 164.694 222.061C180.957 222.133 194.247 208.96 194.319 192.697C194.355 184.819 191.319 177.398 185.773 171.803ZM218.65 118.673C224.162 118.698 229.334 120.867 233.214 124.781C237.094 128.696 239.217 133.887 239.193 139.398C239.142 150.776 229.845 159.991 218.467 159.94C212.956 159.916 207.784 157.747 203.904 153.832C202.786 152.705 201.819 151.468 201.003 150.152L221.816 138.888L201.517 127.669C202.252 126.598 203.091 125.587 204.033 124.652C207.948 120.773 213.139 118.649 218.65 118.673ZM110.611 158.595C105.1 158.571 99.9277 156.401 96.0476 152.487C92.1675 148.572 90.0444 143.381 90.0686 137.87C90.1193 126.493 99.4165 117.278 110.794 117.328C116.305 117.352 121.477 119.521 125.357 123.436C126.475 124.564 127.442 125.8 128.259 127.117L107.445 138.38L127.744 149.599C127.009 150.67 126.17 151.682 125.228 152.616C121.313 156.496 116.122 158.619 110.611 158.595ZM175.923 101.846L164.884 81.4487L153.437 102.161C152.127 101.333 150.899 100.355 149.782 99.2271C145.902 95.3126 143.778 90.1217 143.803 84.6102C143.853 73.233 153.15 64.018 164.528 64.068C170.039 64.0925 175.211 66.2615 179.091 70.1762C182.971 74.0908 185.094 79.2815 185.07 84.7931C185.046 90.3047 182.876 95.4767 178.962 99.3564C178.019 100.291 177.001 101.121 175.923 101.846ZM164.552 156.292C159.836 156.271 155.41 154.415 152.089 151.065C148.769 147.715 146.952 143.273 146.973 138.556C146.993 133.84 148.85 129.413 152.2 126.093C155.549 122.772 159.992 120.955 164.709 120.977C169.425 120.997 173.852 122.854 177.172 126.204C180.492 129.554 182.309 133.996 182.288 138.713C182.268 143.429 180.411 147.856 177.062 151.176C173.712 154.496 169.269 156.313 164.552 156.292ZM164.734 213.2C159.222 213.175 154.05 211.006 150.17 207.091C146.29 203.177 144.167 197.986 144.191 192.475C144.216 186.963 146.385 181.791 150.3 177.912C151.242 176.977 152.261 176.148 153.338 175.422L164.377 195.819L175.824 175.107C177.134 175.935 178.361 176.913 179.479 178.041C183.359 181.955 185.482 187.146 185.458 192.658C185.408 204.035 176.111 213.25 164.734 213.2Z" fill="#4770D8"/>
</svg>
