<svg width="564" height="229" viewBox="0 0 564 229" fill="none" xmlns="http://www.w3.org/2000/svg">
<path d="M268.991 29.4814L294.643 96L285.133 96L279.242 80.6924L249.23 80.6924L243.339 96L233.83 96L259.481 29.4814L268.991 29.4814ZM252.848 71.1831L275.578 71.1831L264.259 41.8667L252.848 71.1831ZM303.964 29.4814L352.438 29.4814L352.438 38.9907L313.473 38.9907L313.473 58.0093L346.732 58.0093L346.732 67.5186L313.473 67.5186L313.473 96L303.964 96L303.964 29.4814ZM373.17 67.5186C371.871 67.5186 370.634 67.2712 369.459 66.7764C368.315 66.2507 367.31 65.5703 366.444 64.7354C365.578 63.8695 364.898 62.8644 364.403 61.7202C363.908 60.5451 363.661 59.3081 363.661 58.0093L363.661 38.9907C363.661 37.6919 363.908 36.4704 364.403 35.3262C364.898 34.151 365.578 33.146 366.444 32.311C367.31 31.4451 368.315 30.7648 369.459 30.27C370.634 29.7443 371.871 29.4814 373.17 29.4814L405.455 29.4814C406.754 29.4814 407.976 29.7443 409.12 30.27C410.295 30.7648 411.315 31.4451 412.181 32.311C413.047 33.146 413.728 34.151 414.222 35.3262C414.717 36.4704 414.965 37.6919 414.965 38.9907L414.965 47.5723L405.455 47.5723L405.455 38.9907L373.17 38.9907L373.17 58.0093L405.455 58.0093C406.754 58.0093 407.976 58.2567 409.12 58.7515C410.295 59.2463 411.315 59.9266 412.181 60.7925C413.047 61.6584 413.728 62.6789 414.222 63.854C414.717 64.9982 414.965 66.2197 414.965 67.5186L414.965 86.4907C414.965 87.7896 414.717 89.0265 414.222 90.2017C413.728 91.3459 413.047 92.3509 412.181 93.2168C411.315 94.0827 410.295 94.763 409.12 95.2578C407.976 95.7526 406.754 96 405.455 96L372.242 96C370.944 96 369.707 95.7526 368.531 95.2578C367.387 94.763 366.382 94.0827 365.516 93.2168C364.65 92.3509 363.97 91.3459 363.475 90.2017C362.98 89.0265 362.733 87.7896 362.733 86.4907L362.733 77.9556L372.242 77.9556L372.242 86.4907L405.455 86.4907L405.455 67.5186L373.17 67.5186Z" fill="white"/>
<path d="M116.773 128.803C115.053 127.068 113.155 125.573 111.121 124.334L115.759 115.942L124.192 111.378C125.413 113.424 126.891 115.335 128.611 117.07C134.157 122.666 141.55 125.766 149.428 125.801C165.692 125.873 178.981 112.701 179.054 96.4375C179.088 88.5594 176.053 81.1386 170.507 75.5435C164.961 69.9479 157.568 66.8471 149.69 66.8124C141.812 66.7775 134.391 69.8128 128.796 75.3588C127.245 76.8954 125.888 78.5745 124.732 80.3658L115.939 75.5055L111.157 66.6692C112.958 65.5299 114.649 64.187 116.2 62.6503C121.795 57.1044 124.896 49.7108 124.931 41.8327C124.966 33.9549 121.931 26.5341 116.385 20.9387C110.839 15.3434 103.445 12.2426 95.5672 12.2077C79.3036 12.1354 66.0136 25.308 65.9413 41.5712C65.9064 49.4493 68.9417 56.8701 74.4875 62.4652C76.2076 64.2006 78.1056 65.6957 80.1402 66.9339L75.5018 75.3265L67.0684 79.8903C65.8481 77.8446 64.3701 75.9336 62.6501 74.1982C57.1041 68.6029 49.7107 65.5021 41.8327 65.4671C25.5692 65.395 12.2795 78.5675 12.2074 94.8309C12.1725 102.709 15.2078 110.13 20.7536 115.725C26.2997 121.32 33.6931 124.421 41.571 124.456C49.449 124.491 56.8698 121.456 62.4652 115.91C64.0155 114.373 65.3733 112.694 66.5289 110.902L75.3225 115.763L80.1046 124.599C78.3032 125.738 76.6121 127.081 75.0614 128.618C69.4661 134.164 66.3651 141.558 66.3301 149.436C66.295 157.314 69.3304 164.734 74.8763 170.33C80.4223 175.925 87.8155 179.026 95.6937 179.061C111.957 179.133 125.247 165.96 125.319 149.697C125.355 141.819 122.319 134.398 116.773 128.803ZM149.65 75.6733C155.162 75.6978 160.334 77.867 164.214 81.7814C168.094 85.6959 170.217 90.8868 170.193 96.3984C170.142 107.776 160.845 116.991 149.468 116.94C143.956 116.916 138.784 114.747 134.904 110.832C133.787 109.705 132.819 108.468 132.003 107.152L152.816 95.8882L132.517 84.6694C133.252 83.598 134.091 82.5869 135.034 81.6525C138.948 77.7725 144.139 75.6491 149.65 75.6733ZM41.6108 115.595C36.0996 115.571 30.9278 113.401 27.0477 109.487C23.1676 105.572 21.0445 100.381 21.0687 94.87C21.1193 83.4929 30.4166 74.2776 41.7938 74.3279C47.3049 74.3523 52.477 76.5213 56.3571 80.436C57.4748 81.5636 58.4417 82.8003 59.2587 84.1169L38.4455 95.3802L58.7443 106.599C58.0093 107.67 57.1703 108.682 56.2278 109.616C52.3135 113.496 47.1224 115.619 41.6108 115.595ZM106.923 58.8463L95.8841 38.4487L84.4366 59.1612C83.127 58.3325 81.8993 57.3547 80.7816 56.2271C76.9017 52.3126 74.7784 47.1217 74.8029 41.6102C74.8535 30.233 84.1506 21.018 95.5279 21.068C101.039 21.0925 106.211 23.2615 110.091 27.1762C113.971 31.0908 116.094 36.2815 116.07 41.7931C116.046 47.3047 113.876 52.4767 109.962 56.3564C109.019 57.2914 108.001 58.1211 106.923 58.8463ZM95.5523 113.292C90.8358 113.271 86.4096 111.415 83.0893 108.065C79.769 104.715 77.9519 100.273 77.9728 95.5562C77.9935 90.8395 79.8499 86.413 83.1996 83.0928C86.5495 79.7725 90.992 77.9555 95.709 77.9766C100.425 77.9975 104.852 79.8538 108.172 83.2037C111.492 86.5536 113.309 90.9961 113.288 95.7126C113.268 100.429 111.411 104.856 108.062 108.176C104.712 111.496 100.269 113.313 95.5523 113.292ZM95.7336 170.2C90.2222 170.175 85.0503 168.006 81.1704 164.091C77.2905 160.177 75.1672 154.986 75.1915 149.475C75.2161 143.963 77.3855 138.791 81.2998 134.912C82.2425 133.977 83.2608 133.148 84.3385 132.422L95.3769 152.819L106.824 132.107C108.134 132.935 109.361 133.913 110.479 135.041C114.359 138.955 116.482 144.146 116.458 149.658C116.408 161.035 107.111 170.25 95.7336 170.2Z" fill="white"/>
<path d="M251.996 122.992L262.797 151L258.793 151L256.313 144.555L243.676 144.555L241.195 151L237.191 151L247.992 122.992L251.996 122.992ZM245.199 140.551L254.77 140.551L250.004 128.207L245.199 140.551ZM283.929 142.562L270.159 142.562L270.159 147.152L283.929 147.152L283.929 151L270.159 151C269.638 151 269.143 150.902 268.675 150.707C268.206 150.499 267.796 150.225 267.444 149.887C267.106 149.535 266.832 149.125 266.624 148.656C266.429 148.187 266.331 147.686 266.331 147.152L266.331 134.047C266.331 133.513 266.429 133.012 266.624 132.543C266.832 132.074 267.106 131.671 267.444 131.332C267.796 130.98 268.206 130.707 268.675 130.512C269.143 130.303 269.638 130.199 270.159 130.199L280.081 130.199C280.615 130.199 281.116 130.303 281.585 130.512C282.054 130.707 282.457 130.98 282.796 131.332C283.147 131.671 283.421 132.074 283.616 132.543C283.824 133.012 283.929 133.513 283.929 134.047L283.929 142.562ZM270.159 134.047L270.159 138.715L280.081 138.715L280.081 134.047L270.159 134.047ZM293.303 134.047L293.303 151L289.474 151L289.474 130.199L293.303 130.199L293.303 133.871C293.329 133.363 293.446 132.888 293.654 132.445C293.862 131.99 294.136 131.599 294.474 131.273C294.826 130.935 295.23 130.674 295.685 130.492C296.141 130.297 296.629 130.199 297.15 130.199L301.232 130.199C301.766 130.199 302.261 130.303 302.717 130.512C303.185 130.707 303.595 130.98 303.947 131.332C304.299 131.671 304.572 132.074 304.767 132.543C304.976 133.012 305.08 133.513 305.08 134.047L305.08 137.562L301.232 137.562L301.232 134.047L293.303 134.047ZM326.973 147.152C326.973 147.686 326.869 148.187 326.661 148.656C326.465 149.125 326.192 149.535 325.84 149.887C325.502 150.225 325.098 150.499 324.63 150.707C324.174 150.902 323.679 151 323.145 151L312.813 151C312.292 151 311.798 150.902 311.329 150.707C310.86 150.499 310.45 150.225 310.098 149.887C309.76 149.535 309.486 149.125 309.278 148.656C309.083 148.187 308.985 147.686 308.985 147.152L308.985 134.047C308.985 133.513 309.083 133.012 309.278 132.543C309.486 132.074 309.76 131.671 310.098 131.332C310.45 130.98 310.86 130.707 311.329 130.512C311.798 130.303 312.292 130.199 312.813 130.199L323.145 130.199C323.679 130.199 324.174 130.303 324.63 130.512C325.098 130.707 325.502 130.98 325.84 131.332C326.192 131.671 326.465 132.074 326.661 132.543C326.869 133.012 326.973 133.513 326.973 134.047L326.973 147.152ZM312.813 134.047L312.813 147.152L323.145 147.152L323.145 134.047L312.813 134.047ZM332.91 122.992L353.32 122.992L353.32 126.996L336.914 126.996L336.914 135.004L350.918 135.004L350.918 139.008L336.914 139.008L336.914 151L332.91 151L332.91 122.992ZM361.698 130.199L361.698 151L357.85 151L357.85 130.199L361.698 130.199ZM357.655 122.191L361.893 122.191L361.893 126.195L357.655 126.195L357.655 122.191ZM371.267 134.047L371.267 151L367.439 151L367.439 130.199L371.267 130.199L371.267 133.871C371.293 133.363 371.41 132.888 371.618 132.445C371.827 131.99 372.1 131.599 372.439 131.273C372.79 130.935 373.194 130.674 373.65 130.492C374.105 130.297 374.594 130.199 375.115 130.199L379.197 130.199C379.73 130.199 380.225 130.303 380.681 130.512C381.15 130.707 381.56 130.98 381.911 131.332C382.263 131.671 382.536 132.074 382.732 132.543C382.94 133.012 383.044 133.513 383.044 134.047L383.044 137.562L379.197 137.562L379.197 134.047L371.267 134.047ZM404.547 142.562L390.777 142.562L390.777 147.152L404.547 147.152L404.547 151L390.777 151C390.257 151 389.762 150.902 389.293 150.707C388.824 150.499 388.414 150.225 388.063 149.887C387.724 149.535 387.451 149.125 387.242 148.656C387.047 148.187 386.949 147.686 386.949 147.152L386.949 134.047C386.949 133.513 387.047 133.012 387.242 132.543C387.451 132.074 387.724 131.671 388.063 131.332C388.414 130.98 388.824 130.707 389.293 130.512C389.762 130.303 390.257 130.199 390.777 130.199L400.699 130.199C401.233 130.199 401.735 130.303 402.203 130.512C402.672 130.707 403.076 130.98 403.414 131.332C403.766 131.671 404.039 132.074 404.235 132.543C404.443 133.012 404.547 133.513 404.547 134.047L404.547 142.562ZM390.777 134.047L390.777 138.715L400.699 138.715L400.699 134.047L390.777 134.047ZM414.487 139.008C413.94 139.008 413.42 138.904 412.925 138.695C412.443 138.474 412.02 138.187 411.655 137.836C411.291 137.471 411.004 137.048 410.796 136.566C410.588 136.072 410.483 135.551 410.483 135.004L410.483 126.996C410.483 126.449 410.588 125.935 410.796 125.453C411.004 124.958 411.291 124.535 411.655 124.184C412.02 123.819 412.443 123.533 412.925 123.324C413.42 123.103 413.94 122.992 414.487 122.992L428.081 122.992C428.628 122.992 429.142 123.103 429.624 123.324C430.119 123.533 430.549 123.819 430.913 124.184C431.278 124.535 431.564 124.958 431.773 125.453C431.981 125.935 432.085 126.449 432.085 126.996L432.085 130.609L428.081 130.609L428.081 126.996L414.487 126.996L414.487 135.004L428.081 135.004C428.628 135.004 429.142 135.108 429.624 135.316C430.119 135.525 430.549 135.811 430.913 136.176C431.278 136.54 431.564 136.97 431.773 137.465C431.981 137.947 432.085 138.461 432.085 139.008L432.085 146.996C432.085 147.543 431.981 148.064 431.773 148.559C431.564 149.04 431.278 149.464 430.913 149.828C430.549 150.193 430.119 150.479 429.624 150.687C429.142 150.896 428.628 151 428.081 151L414.097 151C413.55 151 413.029 150.896 412.534 150.687C412.052 150.479 411.629 150.193 411.265 149.828C410.9 149.464 410.614 149.04 410.405 148.559C410.197 148.064 410.093 147.543 410.093 146.996L410.093 143.402L414.097 143.402L414.097 146.996L428.081 146.996L428.081 139.008L414.487 139.008ZM455.639 142.562L441.869 142.562L441.869 147.152L455.639 147.152L455.639 151L441.869 151C441.348 151 440.853 150.902 440.385 150.707C439.916 150.499 439.506 150.225 439.154 149.887C438.816 149.535 438.542 149.125 438.334 148.656C438.139 148.187 438.041 147.686 438.041 147.152L438.041 134.047C438.041 133.513 438.139 133.012 438.334 132.543C438.542 132.074 438.816 131.671 439.154 131.332C439.506 130.98 439.916 130.707 440.385 130.512C440.853 130.303 441.348 130.199 441.869 130.199L451.791 130.199C452.325 130.199 452.826 130.303 453.295 130.512C453.764 130.707 454.167 130.98 454.506 131.332C454.857 131.671 455.131 132.074 455.326 132.543C455.534 133.012 455.639 133.513 455.639 134.047L455.639 142.562ZM441.869 134.047L441.869 138.715L451.791 138.715L451.791 134.047L441.869 134.047ZM465.012 134.047L465.012 147.152L474.934 147.152L474.934 143.637L478.782 143.637L478.782 147.152C478.782 147.686 478.678 148.187 478.47 148.656C478.274 149.125 478.001 149.535 477.649 149.887C477.311 150.225 476.907 150.499 476.438 150.707C475.97 150.902 475.468 151 474.934 151L465.012 151C464.492 151 463.997 150.902 463.528 150.707C463.059 150.499 462.649 150.225 462.298 149.887C461.959 149.535 461.686 149.125 461.477 148.656C461.282 148.187 461.184 147.686 461.184 147.152L461.184 134.047C461.184 133.513 461.282 133.012 461.477 132.543C461.686 132.074 461.959 131.671 462.298 131.332C462.649 130.98 463.059 130.707 463.528 130.512C463.997 130.303 464.492 130.199 465.012 130.199L474.934 130.199C475.468 130.199 475.97 130.303 476.438 130.512C476.907 130.707 477.311 130.98 477.649 131.332C478.001 131.671 478.274 132.074 478.47 132.543C478.678 133.012 478.782 133.513 478.782 134.047L478.782 137.562L474.934 137.562L474.934 134.047L465.012 134.047ZM484.328 130.199L488.156 130.199L488.156 147.152L498.879 147.152L498.879 130.199L502.726 130.199L502.726 151L498.879 151L498.879 147.484C498.84 147.966 498.709 148.422 498.488 148.852C498.267 149.281 497.98 149.659 497.629 149.984C497.29 150.297 496.899 150.544 496.457 150.727C496.014 150.909 495.545 151 495.05 151L488.156 151C487.635 151 487.14 150.902 486.672 150.707C486.203 150.499 485.793 150.225 485.441 149.887C485.103 149.535 484.829 149.125 484.621 148.656C484.425 148.187 484.328 147.686 484.328 147.152L484.328 130.199ZM512.081 134.047L512.081 151L508.253 151L508.253 130.199L512.081 130.199L512.081 133.871C512.107 133.363 512.224 132.888 512.432 132.445C512.641 131.99 512.914 131.599 513.253 131.273C513.604 130.935 514.008 130.674 514.463 130.492C514.919 130.297 515.407 130.199 515.928 130.199L520.01 130.199C520.544 130.199 521.039 130.303 521.495 130.512C521.963 130.707 522.374 130.98 522.725 131.332C523.077 131.671 523.35 132.074 523.545 132.543C523.754 133.012 523.858 133.513 523.858 134.047L523.858 137.562L520.01 137.562L520.01 134.047L512.081 134.047ZM545.361 142.562L531.591 142.562L531.591 147.152L545.361 147.152L545.361 151L531.591 151C531.07 151 530.576 150.902 530.107 150.707C529.638 150.499 529.228 150.225 528.876 149.887C528.538 149.535 528.264 149.125 528.056 148.656C527.861 148.187 527.763 147.686 527.763 147.152L527.763 134.047C527.763 133.513 527.861 133.012 528.056 132.543C528.264 132.074 528.538 131.671 528.876 131.332C529.228 130.98 529.638 130.707 530.107 130.512C530.576 130.303 531.07 130.199 531.591 130.199L541.513 130.199C542.047 130.199 542.548 130.303 543.017 130.512C543.486 130.707 543.889 130.98 544.228 131.332C544.58 131.671 544.853 132.074 545.048 132.543C545.257 133.012 545.361 133.513 545.361 134.047L545.361 142.562ZM531.591 134.047L531.591 138.715L541.513 138.715L541.513 134.047L531.591 134.047Z" fill="white"/>
</svg>
