<svg width="900" height="900" viewBox="0 0 900 900" fill="none" xmlns="http://www.w3.org/2000/svg">
<rect width="900" height="900" rx="100" fill="white"/>
<path d="M538.704 591.947C531.521 584.699 523.593 578.455 515.096 573.283L534.468 538.232L569.69 519.171C574.787 527.715 580.96 535.696 588.143 542.944C611.306 566.313 642.185 579.263 675.087 579.409C743.012 579.71 798.516 524.695 798.817 456.771C798.963 423.869 786.286 392.876 763.124 369.507C739.961 346.138 709.082 333.187 676.18 333.042C643.277 332.896 612.285 345.573 588.916 368.736C582.441 375.154 576.77 382.166 571.945 389.648L535.218 369.349L515.246 332.444C522.77 327.686 529.833 322.077 536.307 315.659C559.676 292.497 572.628 261.617 572.774 228.715C572.92 195.813 560.243 164.82 537.08 141.451C513.918 118.082 483.039 105.131 450.136 104.985C382.211 104.683 326.706 159.699 326.404 227.622C326.258 260.525 338.935 291.518 362.097 314.886C369.281 322.134 377.208 328.378 385.706 333.55L366.333 368.601L331.111 387.662C326.015 379.118 319.842 371.137 312.658 363.889C289.495 340.52 258.617 327.569 225.714 327.424C157.79 327.122 102.285 382.137 101.984 450.061C101.838 482.964 114.515 513.957 137.677 537.325C160.841 560.695 191.719 573.646 224.621 573.791C257.524 573.937 288.517 561.26 311.886 538.097C318.361 531.679 324.032 524.666 328.858 517.183L365.585 537.482L385.557 574.387C378.033 579.145 370.97 584.754 364.494 591.173C341.125 614.336 328.174 645.215 328.028 678.118C327.881 711.02 340.558 742.013 363.721 765.382C386.884 788.751 417.761 801.701 450.665 801.847C518.589 802.149 574.095 747.133 574.396 679.209C574.544 646.307 561.867 615.316 538.704 591.947ZM676.015 370.05C699.034 370.152 720.635 379.212 736.839 395.56C753.044 411.909 761.912 433.589 761.81 456.608C761.598 504.125 722.768 542.612 675.251 542.402C652.233 542.299 630.632 533.24 614.427 516.892C609.76 512.182 605.72 507.018 602.309 501.518L689.235 454.477L604.458 407.622C607.527 403.147 611.03 398.924 614.968 395.022C631.317 378.817 652.997 369.949 676.015 370.05ZM224.788 536.783C201.77 536.681 180.17 527.621 163.965 511.272C147.759 494.922 138.892 473.243 138.993 450.225C139.205 402.708 178.035 364.221 225.552 364.431C248.569 364.533 270.17 373.592 286.375 389.941C291.043 394.651 295.082 399.816 298.494 405.314L211.568 452.356L296.345 499.211C293.276 503.686 289.772 507.909 285.835 511.811C269.487 528.016 247.807 536.885 224.788 536.783ZM497.564 299.772L451.46 214.581L403.65 301.087C398.18 297.626 393.052 293.542 388.384 288.833C372.18 272.484 363.312 250.804 363.414 227.785C363.626 180.268 402.455 141.782 449.972 141.991C472.99 142.093 494.591 151.152 510.796 167.501C527.002 183.851 535.869 205.53 535.767 228.549C535.665 251.568 526.604 273.169 510.256 289.373C506.318 293.278 502.065 296.743 497.564 299.772ZM450.074 527.165C430.376 527.078 411.89 519.325 398.022 505.334C384.155 491.343 376.566 472.789 376.654 453.091C376.74 433.391 384.493 414.904 398.483 401.037C412.474 387.17 431.028 379.581 450.729 379.669C470.427 379.757 488.913 387.51 502.781 401.5C516.648 415.491 524.237 434.045 524.149 453.744C524.063 473.443 516.31 491.93 502.32 505.797C488.328 519.664 469.774 527.252 450.074 527.165ZM450.831 764.84C427.813 764.737 406.213 755.677 390.008 739.328C373.804 722.98 364.936 701.3 365.037 678.282C365.14 655.263 374.201 633.662 390.549 617.458C394.486 613.556 398.739 610.091 403.24 607.06L449.342 692.25L497.152 605.744C502.621 609.204 507.748 613.288 512.417 617.999C528.621 634.347 537.489 656.027 537.387 679.046C537.177 726.563 498.349 765.049 450.831 764.84Z" fill="black"/>
</svg>
